<svg xmlns="http://www.w3.org/2000/svg" version="1.1"
    xmlns:xlink="http://www.w3.org/1999/xlink" width="512" height="512" x="0" y="0" viewBox="0 0 64 64" style="enable-background:new 0 0 512 512" xml:space="preserve" fill-rule="evenodd" class="">
    <g>
        <path d="M49.681 19.046c0-2.161-1.323-4.1-3.334-4.889L33.984 9.314a5.249 5.249 0 0 0-3.815-.006l-12.5 4.853a5.248 5.248 0 0 0-3.35 4.894v14.416c0 10.184 7.426 18.846 17.49 20.403.126.02.191.015.191.015s.065.005.191-.015c10.064-1.557 17.49-10.219 17.49-20.403V19.046zM33.12 21.705a1.25 1.25 0 0 0-2.065 0l-2.756 4.039-4.693 1.373a1.251 1.251 0 0 0-.638 1.964l2.99 3.869-.145 4.888a1.251 1.251 0 0 0 1.671 1.213l4.603-1.648 4.604 1.648a1.247 1.247 0 0 0 1.671-1.213l-.145-4.888 2.99-3.869a1.252 1.252 0 0 0-.638-1.964l-4.693-1.373-2.756-4.039zm-1.033 2.922 1.976 2.896c.163.239.404.414.681.495l3.364.984-2.143 2.773a1.249 1.249 0 0 0-.26.802l.104 3.503-3.3-1.181a1.245 1.245 0 0 0-.843 0l-3.3 1.181.104-3.503a1.26 1.26 0 0 0-.26-.802l-2.144-2.773 3.364-.984c.278-.081.519-.256.682-.495z" fill="#000000" opacity="1" data-original="#000000" class=""></path>
        <path d="M14.756 42.535c-.849.326-1.642.758-2.355 1.231-2.193 1.456-3.614 3.279-3.614 3.279a1.248 1.248 0 0 0 0 1.541s1.421 1.824 3.614 3.28c1.534 1.018 3.434 1.843 5.48 1.843 1.883 0 3.643-.709 5.104-1.609a22.207 22.207 0 0 1-8.229-9.565zM49.244 42.535a22.207 22.207 0 0 1-8.229 9.565c1.461.9 3.221 1.609 5.104 1.609 2.046 0 3.946-.825 5.48-1.843 2.193-1.456 3.614-3.28 3.614-3.28a1.248 1.248 0 0 0 0-1.541s-1.421-1.823-3.614-3.279a12.212 12.212 0 0 0-2.355-1.231zM51.1 35.376a22.06 22.06 0 0 1-1.289 5.772c.943.365 1.824.842 2.618 1.369 1.797 1.193 3.121 2.613 3.677 3.257.92-.596 1.723-1.336 2.401-2.104 1.742-1.974 2.643-4.103 2.643-4.103a1.25 1.25 0 0 0-.399-1.489s-1.845-1.393-4.34-2.232c-1.61-.541-3.479-.842-5.311-.47zM51.181 27.763c1.236-.338 2.517-.41 3.706-.336 2.627.165 4.77 1.033 4.77 1.033.533.215.851.765.77 1.335 0 0-.4 2.717-1.853 5.301a16.992 16.992 0 0 0-1.685-.672c-1.735-.583-3.733-.904-5.711-.586l.003-.367zM51.181 19.227v6.991c1.276-.297 2.579-.364 3.8-.288 1.257.079 2.413.306 3.318.536.27-.69.467-1.396.606-2.083.52-2.581.237-4.875.237-4.875a1.25 1.25 0 0 0-1.09-1.09s-2.295-.284-4.875.237c-.658.133-1.333.319-1.996.572zM14.189 41.148a22.06 22.06 0 0 1-1.289-5.772c-1.832-.372-3.701-.071-5.311.47-2.495.839-4.34 2.232-4.34 2.232a1.25 1.25 0 0 0-.399 1.489s.901 2.129 2.643 4.103c.678.768 1.481 1.508 2.401 2.104.556-.644 1.88-2.064 3.677-3.257a13.722 13.722 0 0 1 2.618-1.369zM12.822 33.838a22.543 22.543 0 0 1-.003-.367v-5.708c-1.236-.338-2.517-.41-3.706-.336-2.627.165-4.77 1.033-4.77 1.033a1.25 1.25 0 0 0-.77 1.335s.4 2.717 1.853 5.301c.517-.238 1.084-.47 1.685-.672 1.735-.583 3.733-.904 5.711-.586zM12.819 26.218v-6.991a12.627 12.627 0 0 0-1.996-.572c-2.58-.521-4.875-.237-4.875-.237a1.25 1.25 0 0 0-1.09 1.09s-.283 2.294.237 4.875c.139.687.336 1.393.606 2.083.905-.23 2.061-.457 3.318-.536 1.221-.076 2.524-.009 3.8.288z" fill="#000000" opacity="1" data-original="#000000" class=""></path>
    </g>
</svg>