<svg width="370" height="134" viewBox="0 0 370 134" fill="none" xmlns="http://www.w3.org/2000/svg">
<path d="M310.995 65.961C310.995 54.5895 302.356 45.3841 290.153 45.3841C278.192 45.3841 269.674 54.2285 269.674 66.3821C269.674 78.5959 278.433 87.5005 290.999 87.5005C298.973 87.5005 305.679 83.9507 309.847 76.7307L301.39 72.8199C299.396 76.4299 295.047 78.7764 290.999 78.7764C285.864 78.7764 279.944 74.9257 279.581 69.5709H310.693C310.874 68.4278 310.995 67.2846 310.995 65.961ZM279.763 62.4713C280.487 57.0564 284.233 53.5065 290.214 53.5065C296.134 53.5065 299.759 56.9962 300.242 62.4713H279.763Z" fill="white"/>
<path d="M194.543 45.3841C182.279 45.3841 173.58 54.1684 173.58 66.5626C173.58 78.8366 182.279 87.5005 194.664 87.5005C207.108 87.5005 215.807 78.8366 215.807 66.7431C215.807 54.2887 206.867 45.3841 194.543 45.3841ZM194.664 78.2951C188.502 78.2951 184.696 73.7224 184.696 66.6228C184.696 59.4028 188.562 54.4692 194.664 54.4692C200.826 54.4692 204.692 59.3427 204.692 66.6228C204.692 73.7826 200.886 78.2951 194.664 78.2951Z" fill="white"/>
<path d="M150.873 45.395C145.847 45.395 142.063 47.1027 138.279 51.3427H137.037C134.495 47.515 130.356 45.395 125.685 45.395C120.895 45.395 116.52 47.5738 113.741 51.3427H112.499L112.44 51.2838V46.2194H102.033V86.6171H113.268V65.8294C113.268 59.1161 116.106 55.1705 121.013 55.1705C125.566 55.1705 128.523 58.5272 128.523 63.6505V86.6171H139.816V65.8294C139.816 59.1749 142.655 55.1705 147.621 55.1705C152.115 55.1705 155.012 58.5272 155.012 63.7094V86.6171H166.306V62.3549C166.306 51.8138 160.63 45.395 150.873 45.395Z" fill="white"/>
<path d="M335.99 72.6073H335.187C335.187 71.8877 330.289 59.0936 327.078 51.1773L325.071 46.2196H313.75L329.808 86.7607L323.465 102.194H334.705L357.828 46.2196H346.508L344.661 50.4576L338.398 65.8904C336.632 70.2084 335.91 72.2075 335.99 72.6073Z" fill="white"/>
<path d="M246.969 45.395C241.943 45.395 237.626 47.5738 234.729 51.4605H233.546L233.428 51.4016V46.2194H223.021V86.6171H234.256V65.9472C234.256 59.3516 237.449 55.2294 242.711 55.2294C247.619 55.2294 251.226 58.8805 251.226 64.6516V86.6171H262.46V62.2372C262.46 52.3438 255.956 45.395 246.969 45.395Z" fill="white"/>
<path d="M66.4741 32C49.7871 32 36.3828 45.4442 36.3828 61.8759C36.3828 78.4434 49.9239 91.7518 66.4741 91.7518C83.0243 91.7518 96.5654 78.3076 96.5654 61.8759C96.5654 45.4442 83.0243 32 66.4741 32ZM66.4741 73.0114C59.0138 73.0114 53.161 65.6298 55.9789 57.879C57.0533 54.924 59.4704 52.5258 62.4387 51.4594C70.249 48.6534 77.6899 54.4659 77.6899 61.8759C77.5531 67.9868 72.6291 73.0114 66.4741 73.0114Z" fill="#8B3FFD"/>
<path d="M36.3837 40.6797V84.1355H25.715L12.0371 40.6797H36.3837Z" fill="#8B3FFD"/>
</svg>
