<svg xmlns="http://www.w3.org/2000/svg" version="1.1" xmlns:xlink="http://www.w3.org/1999/xlink" width="512" height="512" x="0" y="0" viewBox="0 0 50 50" style="enable-background:new 0 0 512 512" xml:space="preserve" class=""><g><path fill="#7e9dff" d="m30.667 18.313-8.938 8.958-3.437-3.438a2.084 2.084 0 1 0-2.938 2.938l4.896 4.917a2.084 2.084 0 0 0 2.938 0L33.604 21.27a2.084 2.084 0 1 0-2.937-2.959zM25 4.166a20.833 20.833 0 1 0 0 41.666 20.833 20.833 0 0 0 0-41.666zm0 37.5a16.667 16.667 0 1 1 0-33.334 16.667 16.667 0 0 1 0 33.334z" opacity="1" data-original="#7e9dff" class=""></path></g></svg>