<?xml version="1.0" encoding="utf-8"?>
<!-- Generator: Adobe Illustrator 27.2.0, SVG Export Plug-In . SVG Version: 6.00 Build 0)  -->
<svg version="1.1" id="Слой_1" xmlns="http://www.w3.org/2000/svg" xmlns:xlink="http://www.w3.org/1999/xlink" x="0px" y="0px"
	 viewBox="0 0 110 40" enable-background="new 0 0 110 40" xml:space="preserve">
<g>
	<polygon fill="#5B57A2" points="3.5210145,26.2667103 5.3263683,29.48279 5.3263764,31.4436016 3.5239758,34.6534081 	"/>
	<polygon fill="#D90751" points="10.4507399,28.3123665 12.1417255,27.2790928 15.601882,27.2764778 10.4507523,30.4226799 	"/>
	<polygon fill="#FAB718" points="10.4413671,26.2481747 10.4507322,30.505291 8.6417894,29.3976021 8.6417894,23.0328693 	"/>
	<polygon fill="#ED6F26" points="15.601882,27.2764778 12.1417255,27.2790928 10.4413671,26.2481747 8.6417894,23.0328693 	"/>
	<polygon fill="#63B22F" points="10.4507322,34.6714516 10.4507322,32.6055984 8.6419983,31.518837 8.6422939,37.889164 	"/>
	<polygon fill="#1487C9" points="12.1374779,33.6476517 5.3263683,29.48279 3.5210145,26.2667103 15.5949879,33.6436043 	"/>
	<polygon fill="#017F36" points="8.6422939,37.889164 10.4507322,34.6714516 12.1374779,33.6476517 15.5949879,33.6436043 	"/>
	<polygon fill="#984995" points="3.5239758,34.6534081 8.6560659,31.518837 6.9302702,30.4635448 5.3263764,31.4436016 	"/>
</g>
<g id="Layer_x0020_1">
	<g id="_1421344023328">
		<path fill="#F7931A" d="M33.7252502,32.2579231c-0.9664459,3.9794044-4.8927765,6.4011917-8.7697906,5.4088554
			c-3.8753967-0.9920845-6.2345963-5.022831-5.2677307-9.0019073c0.9660187-3.9798412,4.8923492-6.4018078,8.7681656-5.4097271
			c3.8767395,0.9920826,6.2357941,5.0232639,5.269249,9.0028515l0.0000687-0.0000725H33.7252502z"/>
		<path fill="#FFFFFF" d="M29.8972168,29.4026871c0.1440201-0.9885235-0.5891266-1.5198936-1.5916443-1.8743687l0.3252258-1.3390427
			l-0.7940521-0.2031078l-0.316597,1.3037872c-0.2087479-0.053442-0.4231262-0.1038055-0.6361923-0.1537266l0.3188934-1.3123951
			l-0.7935562-0.2031078l-0.3254089,1.3386097c-0.1727448-0.0403748-0.3424149-0.0802784-0.507019-0.1223221l0.0009155-0.0042133
			l-1.0950089-0.2806969l-0.2112274,0.8705959c0,0,0.589119,0.1386261,0.5767059,0.1471558
			c0.3215485,0.082386,0.3796921,0.3008842,0.3700333,0.4740753l-0.3704605,1.525486
			c0.0221405,0.0057735,0.0508652,0.0141258,0.0825577,0.027195c-0.0264969-0.0067539-0.0546875-0.0141258-0.0839386-0.0213146
			L24.327179,31.712286c-0.0392914,0.1002808-0.1390381,0.2507782-0.3638458,0.1936302
			C23.9712906,31.9177513,23.3862,31.75807,23.3862,31.75807l-0.3942261,0.9330425l1.0333252,0.2644348
			c0.1922379,0.0494881,0.3806152,0.101265,0.566124,0.1499519l-0.3285828,1.3544006l0.7931366,0.2031097l0.3254013-1.340023
			c0.2166748,0.060379,0.4269485,0.1160774,0.6327972,0.1685753l-0.3243027,1.3337059l0.7940903,0.2031097l0.3285446-1.35186
			c1.3540268,0.2630501,2.3721466,0.1569939,2.8006821-1.1002083c0.3453217-1.0121975-0.017189-1.5960312-0.729538-1.976759
			c0.5188446-0.1228313,0.9096451-0.4731312,1.0138397-1.1967506l-0.0002441-0.0001831L29.8972168,29.4026871z
			 M28.0829926,32.0141869c-0.2453995,1.0121956-1.9055862,0.4650307-2.44384,0.3278236l0.4360352-1.7943439
			c0.5382233,0.1379318,2.264267,0.4109001,2.007843,1.4665203H28.0829926z M28.3285599,29.3880215
			c-0.2238541,0.9207001-1.6056442,0.4529419-2.0538864,0.3382473l0.3953323-1.627367
			c0.4482422,0.1146984,1.8917542,0.3287697,1.6586227,1.2891197H28.3285599z"/>
	</g>
</g>
<g>
	<path fill="#FFFFFF" d="M55.1792526,31.6201305c-0.1391411,1.253809-0.5697021,2.351469-1.2916832,3.2960758
		c-0.7219849,0.943058-1.668911,1.6743164-2.840004,2.1937752c-1.1718712,0.519455-2.5168915,0.7791824-4.037384,0.7791824
		c-1.6588593,0-3.1090088-0.3107452-4.3496742-0.9322357c-1.241436-0.6199493-2.2069168-1.4872551-2.8972054-2.6019211
		s-1.03582-2.4133072-1.03582-3.8943768s0.3455315-2.7797089,1.03582-3.8943768
		c0.6902885-1.114666,1.6557693-1.9819736,2.8972054-2.6026917c1.2406654-0.6207199,2.690815-0.9306927,4.3496742-0.9306927
		c1.5204926,0,2.8655128,0.2597275,4.037384,0.7784119c1.171093,0.519455,2.1180191,1.2507133,2.840004,2.1937752
		c0.721981,0.9446068,1.1525421,2.0422668,1.2916832,3.2960739h-3.95158
		c-0.12677-0.6075783-0.3733597-1.1223965-0.7405357-1.5475483c-0.3679466-0.4236031-0.8456612-0.7498093-1.4346886-0.9786186
		c-0.588253-0.2272606-1.2692642-0.3416653-2.0422668-0.3416653c-0.886631,0-1.6526756,0.1607838-2.29813,0.4838982
		c-0.6462288,0.3231144-1.1401749,0.785368-1.481842,1.3867626c-0.3424377,0.6013947-0.5132713,1.3202858-0.5132713,2.1566715
		s0.1708336,1.5552769,0.5132713,2.1566715c0.3416672,0.6013947,0.8356133,1.0636482,1.481842,1.3867645
		c0.6454544,0.3231125,1.411499,0.4838982,2.29813,0.4838982c0.7730026,0,1.4540138-0.1066742,2.0422668-0.3231163
		c0.5890274-0.2148933,1.0667419-0.5380096,1.4346886-0.9693413c0.3671761-0.4297905,0.6137657-0.9554291,0.7405357-1.5753765
		H55.1792526z"/>
	<path fill="#FFFFFF" d="M66.7108765,23.3366585l6.4785156,14.2479439H68.990448L63.5578041,25.007885h1.1394005
		l-5.4519691,12.5767174h-4.1981659l6.4777412-14.2479439H66.7108765z M59.1308289,34.8497276V31.675787h9.8217468v3.1739407
		H59.1308289z"/>
	<path fill="#FFFFFF" d="M77.25383,29.5670414h5.1868286c0.6338577,0,1.127037-0.1453228,1.4810715-0.4359722
		c0.3555756-0.2921944,0.5318222-0.6972466,0.5318222-1.2167015c0-0.531826-0.1762466-0.93997-0.5318222-1.2244339
		c-0.3540344-0.2844639-0.8472137-0.4282417-1.4810715-0.4282417h-5.7372055l1.7670746-1.8799381v13.2028484h-3.9330215V23.3366585
		h8.4535294c1.0899277,0,2.0391769,0.1932487,2.8508301,0.5797501c0.8101044,0.3864994,1.4424133,0.9183235,1.8984833,1.5954723
		s0.6848831,1.4795227,0.6848831,2.4024868c0,0.8997726-0.2288132,1.6913242-0.6848831,2.3746567
		c-0.4560699,0.6848793-1.0883789,1.2167034-1.8984833,1.5970192c-0.8116531,0.3787689-1.7609024,0.5689278-2.8508301,0.5689278
		H77.25383V29.5670414z M79.3826675,30.9167004h4.4262009l5.1095352,6.667902h-4.5591583L79.3826675,30.9167004z"/>
	<path fill="#FFFFFF" d="M97.78936,23.3366585c1.6835938,0,3.1631165,0.2945118,4.4354706,0.8835392
		c1.2723618,0.5897999,2.2602539,1.4184551,2.9636841,2.4882889c0.7034302,1.0698318,1.0543747,2.3205471,1.0543747,3.7521439
		s-0.3509445,2.6823101-1.0543747,3.7521458c-0.7034302,1.0698318-1.6913223,1.900032-2.9636841,2.4890594
		c-1.2723541,0.5890274-2.7518768,0.8827667-4.4354706,0.8827667h-7.105423V23.3366585H97.78936z M94.5968628,35.9319267
		l-1.8799362-1.8428307h5.3754501c0.8487549,0,1.587738-0.1484184,2.2138672-0.4467964
		c0.6276779-0.296833,1.1115799-0.7188911,1.4532471-1.2630806c0.3416595-0.5441933,0.5132675-1.1842384,0.5132675-1.9185886
		c0-0.7467175-0.171608-1.3898544-0.5132675-1.9278622c-0.3416672-0.5380096-0.8255692-0.9569759-1.4532471-1.2538071
		c-0.6261292-0.298378-1.3651123-0.4467945-2.2138672-0.4467945h-5.3754501l1.8799362-1.8428345V35.9319267z"/>
</g>
<path fill="#859DBD" d="M35.1665802,9.4767447c-0.2709579-0.2838898-0.5548477-0.5096292-0.8515816-0.6773939
	c-0.2967339-0.1677666-0.5999794-0.2516041-0.9096451-0.2516041c-0.4257889,0-0.8064499,0.0774164-1.1418953,0.2322493
	c-0.3354397,0.1548328-0.6257534,0.3613062-0.8709335,0.6193323c-0.2322502,0.2580261-0.412859,0.5548477-0.5419178,0.8902903
	c-0.1161251,0.3354425-0.1741848,0.6838169-0.1741848,1.0451241c0,0.3613062,0.0580597,0.7096806,0.1741848,1.0451231
	c0.1290588,0.3354425,0.3096676,0.6322651,0.5419178,0.8902903c0.2451801,0.2580261,0.5354939,0.4644995,0.8709335,0.6193333
	c0.3354454,0.1548319,0.7161064,0.2322493,1.1418953,0.2322493c0.3613091,0,0.6967468-0.0709944,1.0064163-0.2128963
	c0.3096657-0.1548338,0.5741997-0.3741512,0.7935181-0.658041l1.5483322,1.6644573
	c-0.2322502,0.2322493-0.5032082,0.4322119-0.8128738,0.5999775c-0.2967339,0.1677656-0.5999794,0.3032436-0.9096451,0.4064369
	s-0.6064034,0.1741867-0.8902893,0.2128963c-0.2838898,0.0516396-0.5289879,0.0774155-0.7354584,0.0774155
	c-0.6967506,0-1.3547897-0.1161251-1.974123-0.3483744c-0.6193295-0.2322493-1.1548233-0.5612707-1.6063919-0.9870605
	c-0.4515667-0.4257927-0.8128738-0.9354219-1.0838318-1.5289774c-0.2580261-0.6064005-0.387085-1.2773733-0.387085-2.0128298
	c0-0.7354574,0.1290588-1.3999205,0.387085-1.9934759c0.2709579-0.6064014,0.6322651-1.1225405,1.0838318-1.5483317
	c0.4515686-0.4257913,0.9870625-0.7548108,1.6063919-0.9870615c0.6193333-0.2322497,1.2773724-0.3483744,1.974123-0.3483744
	c0.5935555,0,1.1870232,0.1161246,1.7805824,0.3483744c0.6063995,0.2193446,1.1354713,0.5741763,1.5870361,1.0644774
	L35.1665802,9.4767447z M40.0132942,12.1476154c0.0774193,0.6967497,0.3483734,1.2386656,0.8128777,1.6257486
	c0.4645004,0.3870811,1.0257645,0.5806236,1.6838074,0.5806236c0.5806236,0,1.064476-0.1161242,1.451561-0.3483744
	c0.3999252-0.2451811,0.7482986-0.5483379,1.0451241-0.9096451l1.6644554,1.2580194
	c-0.5419159,0.6709719-1.148407,1.1483164-1.8192902,1.4322071c-0.6709709,0.2838888-1.3741417,0.4257898-2.1096001,0.4257898
	c-0.6967506,0-1.3547897-0.1161251-1.9741211-0.3483744s-1.1548271-0.5612707-1.6063957-0.9870605
	c-0.4516563-0.4257927-0.8128738-0.9354219-1.083828-1.5289774c-0.2581139-0.6064005-0.387085-1.2773733-0.387085-2.0128298
	c0-0.7354574,0.1289711-1.3999205,0.387085-1.9934759c0.2709541-0.6064014,0.6321716-1.1225405,1.083828-1.5483317
	c0.4515686-0.4257913,0.9870644-0.7548108,1.6063957-0.9870615c0.6193314-0.2322497,1.2773705-0.3483744,1.9741211-0.3483744
	c0.6451073,0,1.2321548,0.1161246,1.7612267,0.3483744c0.5419159,0.2193446,0.9999046,0.5419159,1.3741417,0.9677072
	c0.387085,0.4257917,0.6838188,0.9547749,0.8902931,1.587039c0.2193184,0.6193333,0.3290215,1.3354368,0.3290215,2.1483097
	v0.6386862H40.0132942z M44.7744141,10.4057426c-0.0129318-0.683816-0.2258301-1.2193098-0.6386871-1.6063919
	c-0.4129448-0.4000158-0.9870605-0.5999784-1.7225189-0.5999784c-0.6967468,0-1.2515945,0.1999626-1.6644554,0.5999784
	c-0.400013,0.4000139-0.6451988,0.93542-0.7354584,1.6063919H44.7744141z M49.268795,6.6897488h2.2063713v1.4902687h0.0387115
	c0.2193146-0.464499,0.5548477-0.8644876,1.0064125-1.1999559c0.4515686-0.3483753,1.0644798-0.5225625,1.8386421-0.5225625
	c0.6193352,0,1.1418991,0.1032195,1.5676842,0.3096666c0.4387283,0.2064466,0.7935219,0.4774051,1.0644836,0.8128734
	c0.2709579,0.3354692,0.4645004,0.7225256,0.5806198,1.1612492c0.1161308,0.4387226,0.1741867,0.8967113,0.1741867,1.3741426
	v5.8643045h-2.3224945V11.27668c0-0.2580261-0.0129356-0.5419159-0.0387077-0.8515825
	c-0.0257759-0.3225985-0.0967712-0.6193323-0.2128944-0.8902903c-0.1031952-0.2838898-0.2709618-0.516139-0.503212-0.6967487
	c-0.2322502-0.1935415-0.548336-0.2903118-0.948349-0.2903118c-0.387085,0-0.7161064,0.0644846-0.9870605,0.1935415
	c-0.2580261,0.1290569-0.4774323,0.3032436-0.6580429,0.5225611c-0.1677628,0.2193174-0.2903099,0.4709215-0.3677292,0.7548113
	c-0.0774117,0.2838898-0.1161232,0.5806246-0.1161232,0.8902903v5.0707846H49.268795V6.6897488z M59.2984619,8.6638708v-1.974122
	h1.9160614V3.9995239h2.3224945v2.6902249h2.5547485v1.974122h-2.5547485V12.72824
	c0,0.4644995,0.0838394,0.8322277,0.251606,1.1031866c0.1806107,0.270956,0.5289803,0.4064369,1.0451241,0.4064369
	c0.2064743,0,0.4322128-0.0193558,0.6773987-0.0580626c0.2451706-0.0516415,0.4387131-0.1290569,0.5806198-0.2322502v1.9547682
	c-0.2451859,0.1161251-0.5483398,0.1935406-0.9096451,0.2322502c-0.3483734,0.0516396-0.6580429,0.0774155-0.9289932,0.0774155
	c-0.619339,0-1.1289673-0.0709934-1.5289803-0.2128963c-0.387085-0.129056-0.6967468-0.3290186-0.928997-0.5999775
	c-0.2193222-0.2838898-0.3741531-0.6322641-0.4645004-1.0451231c-0.0774193-0.4128599-0.116127-0.8902912-0.116127-1.4322062
	V8.6638708H59.2984619z M67.9047165,14.6249447c0-0.412858,0.1484146-0.7677431,0.4451523-1.064477
	c0.3096619-0.2967339,0.6773911-0.4451447,1.1031799-0.4451447c0.4128571,0,0.7741623,0.141901,1.0838394,0.4257917
	c0.3096619,0.2838879,0.4644928,0.6322622,0.4644928,1.0451231c0,0.412858-0.1548309,0.7677431-0.4644928,1.064476
	c-0.2967377,0.2967358-0.6580429,0.4451456-1.0838394,0.4451456c-0.2064743,0-0.4064331-0.0387077-0.5999756-0.1161242
	c-0.1806107-0.0774164-0.3419571-0.1806087-0.4838562-0.3096657s-0.2580261-0.2838907-0.3483734-0.4644995
	C67.943428,15.0249596,67.9047165,14.831419,67.9047165,14.6249447z"/>
<path fill="#0687F8" d="M79.437851,14.7023621h-0.0580673c-0.3355255,0.5289831-0.7613144,0.9160662-1.2773666,1.1612482
	c-0.5161438,0.2322493-1.0838318,0.3483744-1.7031708,0.3483744c-0.4257812,0-0.8451614-0.0580616-1.2580185-0.1741867
	c-0.4000092-0.1161251-0.7613144-0.2903128-1.0838242-0.522562c-0.3096695-0.2322493-0.5612717-0.522562-0.7548141-0.8709364
	s-0.2903137-0.7548103-0.2903137-1.2193098c0-0.5032082,0.0902634-0.9289989,0.2709579-1.2773743
	c0.1806107-0.3613062,0.419281-0.65804,0.7161026-0.8902903c0.3096695-0.2451811,0.6644669-0.4387226,1.064476-0.5806236
	c0.3999252-0.141901,0.8128815-0.245182,1.2386627-0.3096666c0.4386444-0.0774164,0.8773651-0.1225471,1.3160858-0.135479
	c0.4386368-0.0257759,0.8515854-0.0387077,1.2386703-0.0387077h0.5806198V9.9412441
	c0-0.5806246-0.2000504-1.0128374-0.5999756-1.2967272c-0.4000168-0.2967339-0.9096451-0.4451447-1.5289764-0.4451447
	c-0.4903717,0-0.9483566,0.0903482-1.3741455,0.270957c-0.4257889,0.1677656-0.7935257,0.4000158-1.1031876,0.6967487
	l-1.2193146-1.2193103c0.5160522-0.5290098,1.1160355-0.9096437,1.799942-1.1418943
	c0.6967468-0.2322497,1.4128494-0.3483744,2.1483002-0.3483744c0.6580429,0,1.2128067,0.0774169,1.6644669,0.2322497
	c0.451561,0.1419277,0.8257141,0.3290205,1.1225357,0.5612702c0.29673,0.2322497,0.5225601,0.5032072,0.6773911,0.8128734
	c0.1676788,0.2967348,0.2838058,0.5999784,0.3483734,0.9096451c0.0774231,0.3096657,0.122551,0.6129103,0.1354828,0.9096441
	c0.0128403,0.2838907,0.0193558,0.5354948,0.0193558,0.7548122v5.3417416H79.437851V14.7023621z M79.3023758,11.8185959h-0.4838562
	c-0.3226013,0-0.6839066,0.0129318-1.0838318,0.0387077c-0.4000168,0.0257759-0.7806778,0.0903492-1.1418991,0.1935415
	c-0.3483658,0.0903482-0.645195,0.2322502-0.8902893,0.4257908c-0.2451782,0.1806097-0.3677292,0.4387236-0.3677292,0.7741652
	c0,0.2193184,0.0451355,0.4064379,0.1354828,0.5612698c0.1031952,0.141902,0.2322464,0.2645369,0.387085,0.3677301
	c0.1548309,0.1031923,0.3290176,0.1806087,0.5225601,0.2322493c0.1935425,0.0387068,0.3870773,0.0580626,0.5806198,0.0580626
	c0.799942,0,1.3869858-0.1871195,1.7612305-0.5612707c0.387085-0.3870831,0.5806274-0.9096441,0.5806274-1.5676842V11.8185959z
	 M84.0268936,6.6897488h2.206459v1.3934984h0.0387115c0.3351746-0.567719,0.7873535-0.9806123,1.3547897-1.2386651
	c0.567421-0.2580523,1.1805954-0.3870831,1.8386383-0.3870831c0.7099457,0,1.3486328,0.1290307,1.9160614,0.3870831
	c0.5674286,0.2451549,1.0512772,0.5870724,1.451561,1.0257688c0.4002838,0.4387236,0.7029037,0.9547758,0.9096451,1.5483313
	c0.2067337,0.5935564,0.3096695,1.2322435,0.3096695,1.9160604s-0.1099701,1.3225031-0.3290253,1.9160585
	c-0.2190552,0.5935574-0.5287247,1.1096087-0.9289932,1.5483322c-0.387085,0.4387226-0.8577499,0.787097-1.4128571,1.0451231
	c-0.5551071,0.2451811-1.1612473,0.3677282-1.8192902,0.3677282c-0.4389877,0-0.8260651-0.0451298-1.1612473-0.135479
	c-0.3351746-0.0903492-0.6325302-0.2064734-0.8902893-0.3483734c-0.2577667-0.141902-0.4776993-0.2903128-0.6580429-0.4451456
	c-0.1803436-0.1677656-0.3290253-0.3290215-0.4451447-0.4838533h-0.0580597v5.5933456h-2.3225861V6.6897488z M91.7299271,11.3347425
	c0-0.3613071-0.0642242-0.7096815-0.1935425-1.0451241c-0.116127-0.3354425-0.2964706-0.6322641-0.5419159-0.8902903
	c-0.232254-0.2580261-0.5164032-0.4644995-0.8515778-0.6193323c-0.3351822-0.1548328-0.7161026-0.2322493-1.1418991-0.2322493
	c-0.4257889,0-0.8067169,0.0774164-1.1418915,0.2322493c-0.3351822,0.1548328-0.6254883,0.3613062-0.8709412,0.6193323
	c-0.2322464,0.2580261-0.41259,0.5548477-0.5419083,0.8902903c-0.116127,0.3354425-0.1741867,0.6838169-0.1741867,1.0451241
	c0,0.3613062,0.0580597,0.7096806,0.1741867,1.0451231c0.1293182,0.3354425,0.3096619,0.6322651,0.5419083,0.8902903
	c0.2454529,0.2580261,0.535759,0.4644995,0.8709412,0.6193333c0.3351746,0.1548319,0.7161026,0.2322493,1.1418915,0.2322493
	c0.4257965,0,0.8067169-0.0774174,1.1418991-0.2322493c0.3351746-0.1548338,0.6193237-0.3613071,0.8515778-0.6193333
	c0.2454453-0.2580252,0.4257889-0.5548477,0.5419159-0.8902903C91.6657028,12.0444231,91.7299271,11.6960487,91.7299271,11.3347425z
	 M96.217453,6.6897488h2.2063675v1.3934984h0.0387115c0.3360519-0.567719,0.7873611-0.9806123,1.3547821-1.2386651
	c0.5683136-0.2580523,1.180603-0.3870831,1.8386459-0.3870831c0.7099457,0,1.3486328,0.1290307,1.9160614,0.3870831
	c0.568306,0.2451549,1.0521622,0.5870724,1.451561,1.0257688c0.4002762,0.4387236,0.7037811,0.9547758,0.9096451,1.5483313
	c0.2067337,0.5935564,0.3096619,1.2322435,0.3096619,1.9160604s-0.1090851,1.3225031-0.3290176,1.9160585
	c-0.2190475,0.5935574-0.5287247,1.1096087-0.9290009,1.5483322c-0.3870773,0.4387226-0.8577423,0.787097-1.4128494,1.0451231
	c-0.5542374,0.2451811-1.1612473,0.3677282-1.8192902,0.3677282c-0.4381104,0-0.8251953-0.0451298-1.1612473-0.135479
	c-0.3351822-0.0903492-0.6316528-0.2064734-0.8902893-0.3483734c-0.2577591-0.141902-0.4768143-0.2903128-0.6580429-0.4451456
	c-0.1803436-0.1677656-0.3290176-0.3290215-0.4451447-0.4838533h-0.0580597v5.5933456H96.217453V6.6897488z M103.9203949,11.3347425
	c0-0.3613071-0.0642166-0.7096815-0.1935425-1.0451241c-0.1161194-0.3354425-0.2964706-0.6322641-0.5419159-0.8902903
	c-0.2322464-0.2580261-0.5155182-0.4644995-0.8515854-0.6193323c-0.3351746-0.1548328-0.716095-0.2322493-1.1418915-0.2322493
	c-0.4257889,0-0.8058319,0.0774164-1.1418915,0.2322493c-0.3351822,0.1548328-0.6254959,0.3613062-0.8709412,0.6193323
	c-0.2322464,0.2580261-0.41259,0.5548477-0.5419083,0.8902903c-0.116127,0.3354425-0.1741867,0.6838169-0.1741867,1.0451241
	c0,0.3613062,0.0580597,0.7096806,0.1741867,1.0451231c0.1293182,0.3354425,0.3096619,0.6322651,0.5419083,0.8902903
	c0.2454453,0.2580261,0.535759,0.4644995,0.8709412,0.6193333c0.3360596,0.1548319,0.7161026,0.2322493,1.1418915,0.2322493
	c0.4257965,0,0.8067169-0.0774174,1.1418915-0.2322493c0.3360672-0.1548338,0.619339-0.3613071,0.8515854-0.6193333
	c0.2454453-0.2580252,0.4257965-0.5548477,0.5419159-0.8902903
	C103.8561783,12.0444231,103.9203949,11.6960487,103.9203949,11.3347425z"/>
<path fill="#0687F8" d="M12.2418442,20.077652c4.8147755,0,8.7178688-3.9030933,8.7178688-8.7178688
	c0-4.8147464-3.9030933-8.7178688-8.7178688-8.7178688c-4.8147459,0-8.7178688,3.9031222-8.7178688,8.7178688
	C3.5239758,16.1745586,7.4270983,20.077652,12.2418442,20.077652z"/>
</svg>
