<svg width="386" height="134" viewBox="0 0 386 134" fill="none" xmlns="http://www.w3.org/2000/svg">
<path d="M34 50.6251L41.0236 63.1809L41.0237 70.8361L34.0115 83.3674L34 50.6251Z" fill="#5B57A2"/>
<path d="M60.9597 58.6115L67.5384 54.5775L81 54.5673L60.9598 66.8503L60.9597 58.6115Z" fill="#D90751"/>
<path d="M60.9233 50.5528L60.9597 67.1728L53.9221 62.8484V38L60.9233 50.5528Z" fill="#FAB718"/>
<path d="M81 54.5673L67.5384 54.5775L60.9233 50.5528L53.9221 38L81 54.5673Z" fill="#ED6F26"/>
<path d="M60.9597 83.4378V75.3726L53.9229 71.1298L53.9241 96L60.9597 83.4378Z" fill="#63B22F"/>
<path d="M67.5219 79.4408L41.0236 63.1809L34 50.6251L80.9732 79.425L67.5219 79.4408Z" fill="#1487C9"/>
<path d="M53.9241 96L60.9597 83.4378L67.5219 79.4408L80.9732 79.425L53.9241 96Z" fill="#017F36"/>
<path d="M34.0115 83.3674L53.9777 71.1298L47.2635 67.0099L41.0237 70.8361L34.0115 83.3674Z" fill="#984995"/>
<path d="M99 38H157V67.1698C157 74.6477 153.011 81.5577 146.535 85.297L128 96L109.465 85.297C102.989 81.5577 99 74.6477 99 67.1698V38Z" fill="#FFDD2D"/>
<path fill-rule="evenodd" clip-rule="evenodd" d="M114.918 53.3528V62.4252C116.158 61.0243 118.414 60.0761 120.993 60.0761H123.796V70.6227C123.796 73.4286 123.033 75.8845 121.902 77.2354H134.093C132.965 75.8832 132.204 73.4303 132.204 70.6281V60.0761H135.007C137.586 60.0761 139.842 61.0243 141.082 62.4252V53.3528H114.918Z" fill="#333333"/>
<path d="M226.893 49.2698C228.274 51.0643 229.437 53.0024 230.381 55.0123L203.999 74.4653L192.951 67.5742V59.2475L203.999 66.1386L226.893 49.198V49.2698Z" fill="#21A038"/>
<path d="M181.687 67C181.687 66.6411 181.687 66.2822 181.687 65.8515L175 65.5643C175 66.0668 175 66.4975 175 67C175 70.8044 175.727 74.6089 177.18 78.1262C178.634 81.6435 180.742 84.8737 183.431 87.5297L188.155 82.7921C186.047 80.7104 184.448 78.2698 183.286 75.5421C182.195 72.8143 181.614 69.9431 181.614 67L181.687 67Z" fill="url(#paint0_linear_566_3)"/>
<path d="M204 44.6757C204.364 44.6757 204.727 44.6757 205.091 44.6757L205.454 38C204.945 38 204.509 38 204 38C200.221 38 196.442 38.7178 192.88 40.2252C189.392 41.6609 186.194 43.8144 183.505 46.5421L188.229 51.2797C190.264 49.198 192.735 47.547 195.424 46.3985C198.113 45.25 201.021 44.6757 203.928 44.6757H204Z" fill="url(#paint1_linear_566_3)"/>
<path d="M203.999 89.3243C203.636 89.3243 203.272 89.3243 202.909 89.3243L202.546 96C203.054 96 203.49 96 203.999 96C207.779 96 211.558 95.2822 215.119 93.7747C218.608 92.3391 221.806 90.1856 224.495 87.4579L219.771 82.7203C217.736 84.802 215.265 86.453 212.575 87.5297C209.886 88.6782 206.979 89.2525 204.072 89.2525L203.999 89.3243Z" fill="url(#paint2_linear_566_3)"/>
<path d="M216.574 48.6238L222.243 44.4604C217.01 40.2252 210.614 38 204 38V44.6757C208.507 44.6757 212.867 46.0396 216.574 48.552L216.574 48.6238Z" fill="url(#paint3_linear_566_3)"/>
<path d="M233 67C233 65.2772 232.855 63.4826 232.564 61.8316L226.313 66.4257V67C226.313 70.0866 225.659 73.1732 224.424 76.0445C223.188 78.9158 221.298 81.4282 218.973 83.5099L223.479 88.4628C226.459 85.7351 228.857 82.4331 230.529 78.7005C232.201 74.9678 233 71.0198 233 66.9282V67Z" fill="#21A038"/>
<path d="M203.999 89.3243C200.874 89.3243 197.821 88.6782 194.986 87.3861C192.152 86.094 189.608 84.2995 187.5 81.9307L182.558 86.453C185.247 89.4678 188.59 91.8366 192.297 93.4876C196.004 95.1386 200.001 96 204.071 96V89.3242L203.999 89.3243Z" fill="url(#paint4_linear_566_3)"/>
<path d="M189.027 50.4901L184.521 45.5371C181.541 48.2648 179.143 51.5668 177.471 55.2995C175.872 58.9604 175 62.9802 175 67H181.687C181.687 63.9133 182.341 60.8267 183.576 57.9554C184.812 55.0841 186.702 52.5718 189.027 50.4901Z" fill="url(#paint5_linear_566_3)"/>
<path d="M299.267 73.0476C295.994 86.4406 282.699 94.5913 269.571 91.2515C256.448 87.9126 248.46 74.3468 251.734 60.9549C255.005 47.5605 268.3 39.4092 281.424 42.7481C294.551 46.087 302.539 59.654 299.267 73.0476Z" fill="#F7931A"/>
<path d="M286.304 63.4381C286.792 60.1112 284.31 58.3228 280.915 57.1298L282.016 52.6231L279.327 51.9395L278.255 56.3275C277.549 56.1477 276.823 55.9782 276.101 55.8102L277.181 51.3932L274.494 50.7096L273.392 55.2148C272.807 55.0789 272.233 54.9446 271.675 54.8031L271.678 54.7889L267.97 53.8442L267.255 56.7743C267.255 56.7743 269.25 57.2409 269.208 57.2696C270.297 57.5468 270.494 58.2822 270.461 58.8651L269.207 63.9992C269.282 64.0187 269.379 64.0468 269.486 64.0908C269.396 64.068 269.301 64.0432 269.202 64.019L267.444 71.2112C267.311 71.5487 266.973 72.0552 266.212 71.8629C266.239 71.9027 264.257 71.3653 264.257 71.3653L262.922 74.5055L266.421 75.3955C267.072 75.5621 267.71 75.7363 268.338 75.9002L267.226 80.4585L269.911 81.1421L271.013 76.6322C271.747 76.8354 272.459 77.0228 273.156 77.1995L272.058 81.6882L274.747 82.3718L275.859 77.822C280.444 78.7073 283.892 78.3504 285.343 74.1192C286.512 70.7125 285.284 68.7476 282.872 67.4662C284.629 67.0528 285.952 65.8735 286.304 63.4381ZM280.161 72.2273C279.33 75.6339 273.709 73.7924 271.886 73.3306L273.363 67.2916C275.185 67.7558 281.03 68.6745 280.161 72.2273ZM280.993 63.3887C280.235 66.4874 275.556 64.9132 274.038 64.5271L275.377 59.0501C276.894 59.4361 281.782 60.1566 280.993 63.3887Z" fill="white"/>
<path d="M334.994 59.7078V39L318 67.519L334.994 59.7078Z" fill="#8A92B2"/>
<path d="M334.994 77.6803L334.994 59.7078L318 67.519L334.994 77.6803ZM334.994 59.7078L351.991 67.519L334.994 39V59.7078Z" fill="#62688F"/>
<path d="M334.994 59.7078L334.994 77.6803L351.991 67.519L334.994 59.7078Z" fill="#454A75"/>
<path d="M334.994 80.9347L318 70.7798L334.994 95V80.9347Z" fill="#8A92B2"/>
<path d="M352 70.7798L334.994 80.9347V95L352 70.7798Z" fill="#62688F"/>
<defs>
<linearGradient id="paint0_linear_566_3" x1="184.855" y1="86.6787" x2="177.533" y2="65.5181" gradientUnits="userSpaceOnUse">
<stop offset="0.14" stop-color="#F1E813"/>
<stop offset="0.3" stop-color="#E6E418"/>
<stop offset="0.58" stop-color="#C9DA26"/>
<stop offset="0.89" stop-color="#A2CC39"/>
</linearGradient>
<linearGradient id="paint1_linear_566_3" x1="185.409" y1="47.6542" x2="204.247" y2="40.4647" gradientUnits="userSpaceOnUse">
<stop offset="0.06" stop-color="#0FA7DF"/>
<stop offset="0.54" stop-color="#0098F8"/>
<stop offset="0.92" stop-color="#0290EA"/>
</linearGradient>
<linearGradient id="paint2_linear_566_3" x1="202.107" y1="91.8938" x2="223.377" y2="87.0426" gradientUnits="userSpaceOnUse">
<stop offset="0.12" stop-color="#A2CC39"/>
<stop offset="0.28" stop-color="#86C239"/>
<stop offset="0.87" stop-color="#219F38"/>
</linearGradient>
<linearGradient id="paint3_linear_566_3" x1="202.55" y1="40.3601" x2="220.754" y2="45.9413" gradientUnits="userSpaceOnUse">
<stop offset="0.06" stop-color="#0290EA"/>
<stop offset="0.79" stop-color="#0C89CA"/>
</linearGradient>
<linearGradient id="paint4_linear_566_3" x1="184.182" y1="85.6664" x2="204.037" y2="93.0762" gradientUnits="userSpaceOnUse">
<stop offset="0.13" stop-color="#F1E813"/>
<stop offset="0.3" stop-color="#EAE616"/>
<stop offset="0.53" stop-color="#D8DF1F"/>
<stop offset="0.8" stop-color="#BAD52D"/>
<stop offset="0.98" stop-color="#A2CC39"/>
</linearGradient>
<linearGradient id="paint5_linear_566_3" x1="177.377" y1="67.7813" x2="185.343" y2="47.0413" gradientUnits="userSpaceOnUse">
<stop offset="0.07" stop-color="#A2CC39"/>
<stop offset="0.26" stop-color="#81C45E"/>
<stop offset="0.92" stop-color="#0FA7DF"/>
</linearGradient>
</defs>
</svg>
