<svg width="38" height="39" viewBox="0 0 38 39" fill="none" xmlns="http://www.w3.org/2000/svg">
<path d="M11.963 1.01074V2.33186C11.963 2.65331 11.7818 2.92349 11.5442 3.14004C11.0872 3.55665 11.0106 4.39615 11.0106 4.39615C10.0472 3.99336 10.0254 6.60045 10.0254 6.60045C9.99818 6.44259 9.53011 6.15959 9.53011 6.15959C8.3708 7.5638 8.48511 9.41434 8.48511 9.41434C8.3817 9.19121 7.6796 8.39655 7.6796 8.39655C6.80329 9.78989 7.18429 11.8527 7.18429 11.8527C6.79243 11.3955 6.1556 11.0798 6.1556 11.0798C5.56781 12.9467 6.29712 14.9115 6.29712 14.9115C5.51336 14.106 4.71874 13.7903 4.71874 13.7903C4.60443 15.9946 5.23036 16.8655 5.23036 16.8655C4.17447 16.0218 3.14578 15.7062 3.14578 15.7062C3.02602 17.9322 4.17447 18.8085 4.17447 18.8085L2.98795 18.6779C2.88454 19.9025 4.10916 21.0074 4.10916 21.0074H2.62326C2.72668 22.4932 5.21402 23.756 5.21402 23.756C4.38129 23.8376 3.72816 24.3329 3.72816 24.3329C4.23978 25.084 5.85625 25.4759 5.85625 25.4759C4.4466 25.4922 4.01661 26.129 4.01661 26.129C4.71626 26.7805 6.00114 27.031 7.07262 27.1215C7.85973 27.1879 8.38909 27.9727 8.12815 28.7183C8.12258 28.7342 8.11708 28.75 8.11164 28.7658C7.82402 29.602 6.78467 29.8747 6.13347 29.2765C5.67633 28.8565 5.27392 28.4926 5.19226 28.4367C4.97998 28.2898 2.42734 26.3522 2.42734 26.3522L3.2764 26.0528C3.2764 26.0528 2.98795 25.7752 2.33482 25.4541C1.68713 25.1275 1.70889 24.2295 1.70889 24.2295L3.11858 23.9519C3.02602 23.756 2.41644 23.4185 1.68713 22.8851C0.957787 22.3518 0.789062 21.0237 0.789062 21.0237H2.18241C2.18241 21.0237 1.89396 20.5121 1.36055 20.1257C0.827168 19.7338 0.876163 18.5963 0.876163 18.5963H2.40013C2.40013 18.5963 2.26951 17.8452 1.76333 17.1648C1.25713 16.4899 1.24082 14.9115 1.24082 14.9115C2.06268 15.483 2.59606 15.3415 2.59606 15.3415C2.49243 15.1115 2.40547 14.8911 2.33285 14.6808C2.00849 13.7419 2.92968 12.8353 3.87178 13.1503C4.05941 13.213 4.15812 13.2079 4.15812 13.2079C3.89861 12.7186 3.78547 12.0188 3.74653 11.3265C3.69335 10.381 4.70032 9.75407 5.54017 10.1917C5.62918 10.2381 5.68209 10.2634 5.68209 10.2634C5.44261 7.68356 6.46584 6.27387 6.46584 6.27387C6.81963 7.17194 7.53263 7.5638 7.53263 7.5638C7.35301 5.63708 8.3708 4.21653 8.3708 4.21653C8.69194 4.39615 9.03484 5.47925 9.03484 5.47925C9.18721 5.29963 9.30697 5.21797 9.34508 4.12401C9.38318 3.03001 10.3465 2.55105 10.3465 2.55105V3.77567C10.6459 3.47087 10.8037 2.62725 10.9616 2.01222C11.1194 1.40264 11.963 1.01074 11.963 1.01074Z" fill="#2196F3"/>
<path d="M25.6992 1.01074V2.33186C25.6992 2.65331 25.8805 2.92349 26.1181 3.14004C26.5751 3.55665 26.6517 4.39615 26.6517 4.39615C27.6151 3.99336 27.6368 6.60045 27.6368 6.60045C27.6641 6.44259 28.1321 6.15959 28.1321 6.15959C29.2915 7.5638 29.1771 9.41434 29.1771 9.41434C29.2806 9.19121 29.9827 8.39655 29.9827 8.39655C30.859 9.78989 30.478 11.8527 30.478 11.8527C30.8698 11.3955 31.5067 11.0798 31.5067 11.0798C32.0945 12.9467 31.3651 14.9115 31.3651 14.9115C32.1489 14.106 32.9435 13.7903 32.9435 13.7903C33.0578 15.9946 32.4319 16.8655 32.4319 16.8655C33.4878 16.0218 34.5165 15.7062 34.5165 15.7062C34.6362 17.9322 33.4878 18.8085 33.4878 18.8085L34.6743 18.6779C34.7777 19.9025 33.5531 21.0074 33.5531 21.0074H35.039C34.9356 22.4932 32.4482 23.756 32.4482 23.756C33.281 23.8376 33.9341 24.3329 33.9341 24.3329C33.4225 25.084 31.806 25.4759 31.806 25.4759C33.2157 25.4922 33.6457 26.129 33.6457 26.129C32.946 26.7805 31.6611 27.031 30.5896 27.1215C29.8025 27.1879 29.2732 27.9727 29.5341 28.7183C29.5397 28.7342 29.5452 28.75 29.5506 28.7658C29.8382 29.602 30.8776 29.8747 31.5288 29.2765C31.9859 28.8565 32.3883 28.4926 32.47 28.4367C32.6823 28.2898 35.2349 26.3522 35.2349 26.3522L34.3859 26.0528C34.3859 26.0528 34.6743 25.7752 35.3274 25.4541C35.9751 25.1275 35.9534 24.2295 35.9534 24.2295L34.5437 23.9519C34.6362 23.756 35.2458 23.4185 35.9751 22.8851C36.7045 22.3518 36.8732 21.0237 36.8732 21.0237H35.4799C35.4799 21.0237 35.7683 20.5121 36.3017 20.1257C36.8351 19.7338 36.7861 18.5963 36.7861 18.5963H35.2621C35.2621 18.5963 35.3928 17.8452 35.8989 17.1648C36.4051 16.4899 36.4214 14.9115 36.4214 14.9115C35.5996 15.483 35.0662 15.3415 35.0662 15.3415C35.1698 15.1115 35.2568 14.8911 35.3294 14.6808C35.6538 13.7419 34.7326 12.8353 33.7905 13.1503C33.6029 13.213 33.5041 13.2079 33.5041 13.2079C33.7636 12.7186 33.8768 12.0188 33.9157 11.3265C33.9689 10.381 32.9619 9.75407 32.1221 10.1917C32.0331 10.2381 31.9802 10.2634 31.9802 10.2634C32.2197 7.68356 31.1964 6.27387 31.1964 6.27387C30.8426 7.17194 30.1296 7.5638 30.1296 7.5638C30.3093 5.63708 29.2915 4.21653 29.2915 4.21653C28.9703 4.39615 28.6274 5.47925 28.6274 5.47925C28.475 5.29963 28.3553 5.21797 28.3172 4.12401C28.2791 3.03001 27.3157 2.55105 27.3157 2.55105V3.77567C27.0164 3.47087 26.8585 2.62725 26.7007 2.01222C26.5429 1.40264 25.6992 1.01074 25.6992 1.01074Z" fill="#2196F3"/>
<path d="M32.494 23.1298C33.7295 22.6889 34.3554 21.4643 34.3554 21.4643H32.4559L34.1486 19.2001L31.8572 19.8478C31.8572 19.8478 32.0749 19.2654 32.924 18.6395C33.7731 18.0136 33.9255 16.5931 33.9255 16.5931L31.5034 17.9102C31.5034 17.9102 31.7919 16.8271 32.0749 16.4352C32.3634 16.0433 32.5212 14.5847 32.5212 14.5847L30.0176 16.5659C30.072 16.0433 30.1101 16.0324 30.6816 14.9112C31.2585 13.79 31.0735 12.0429 31.0735 12.0429C30.4748 12.9192 29.5876 13.2839 29.5876 13.2839L29.8216 12.0865C30.2516 10.274 29.7182 9.44129 29.7182 9.44129L28.5752 10.9761C28.5752 10.9761 28.4664 10.8836 28.4446 9.21815C28.4174 7.55267 28.0636 7.10636 28.0636 7.10636C27.8949 7.39481 27.1656 8.04795 27.1656 8.04795C27.3234 6.44233 26.8608 5.17964 26.8608 5.17964C26.6703 5.63137 26.0825 5.88175 26.0825 5.88175L25.9137 3.79716C25.5654 4.12916 25.1572 3.98223 25.1572 3.98223C25.3422 1.9412 23.9326 1.73438 23.9326 1.73438C27.9656 9.59915 29.642 17.8285 29.5223 20.4737C29.408 23.1189 28.782 23.7829 27.3724 24.1639C25.9682 24.5395 26.0444 22.5583 26.0444 22.5583C26.0444 22.5583 26.1641 21.2847 26.0063 20.3812C25.8484 19.4832 24.6619 20.0982 24.0795 20.5554C23.4917 21.0071 23.0617 20.305 23.0617 20.305C23.0617 20.305 21.7609 18.6232 21.4071 18.1279C21.0533 17.6326 21.1731 17.3496 21.6684 16.4733C22.1637 15.6025 22.1909 14.4051 22.1909 14.4051C22.1909 14.4051 21.9296 9.21815 21.9296 8.25477C21.9296 7.2914 21.1459 7.05736 21.1459 7.05736L19.1538 13.1859L19.2572 13.2948C20.4492 14.6337 18.8164 14.9983 18.8164 14.9983C18.8164 14.9983 17.1836 14.6337 18.3755 13.2948L18.4789 13.1859L16.4869 7.05736C16.4869 7.05736 15.7031 7.2914 15.7031 8.25477C15.7031 9.21815 15.4419 14.4051 15.4419 14.4051C15.4419 14.4051 15.4691 15.6025 15.9644 16.4733C16.4597 17.3496 16.5794 17.6326 16.2256 18.1279C15.8719 18.6232 14.571 20.305 14.571 20.305C14.571 20.305 14.1411 21.0071 13.5533 20.5554C12.9709 20.0982 11.7844 19.4832 11.6265 20.3812C11.4687 21.2847 11.5884 22.5583 11.5884 22.5583C11.5884 22.5583 11.6646 24.5395 10.2604 24.1639C8.85071 23.7829 8.22482 23.1189 8.11051 20.4737C7.99075 17.8285 9.66713 9.59915 13.7002 1.73438C13.7002 1.73438 12.2905 1.9412 12.4756 3.98223C12.4756 3.98223 12.0674 4.12916 11.719 3.79716L11.5503 5.88175C11.5503 5.88175 10.9625 5.63137 10.772 5.17964C10.772 5.17964 10.3094 6.44233 10.4672 8.04795C10.4672 8.04795 9.73789 7.39481 9.56916 7.10636C9.56916 7.10636 9.21536 7.55267 9.18816 9.21815C9.1664 10.8836 9.05754 10.9761 9.05754 10.9761L7.91458 9.44129C7.91458 9.44129 7.38116 10.274 7.81116 12.0865L8.0452 13.2839C8.0452 13.2839 7.15803 12.9192 6.55934 12.0429C6.55934 12.0429 6.37427 13.79 6.9512 14.9112C7.52268 16.0324 7.56078 16.0433 7.61523 16.5659L5.11155 14.5847C5.11155 14.5847 5.26938 16.0433 5.55786 16.4352C5.84089 16.8271 6.12934 17.9102 6.12934 17.9102L3.70731 16.5931C3.70731 16.5931 3.85972 18.0136 4.70879 18.6395C5.55786 19.2654 5.77558 19.8478 5.77558 19.8478L3.48417 19.2001L5.17686 21.4643H3.27734C3.27734 21.4643 3.90327 22.6889 5.13876 23.1298C6.37427 23.5761 6.5321 23.8591 6.5321 23.8591C6.5321 23.8591 5.166 24.1476 4.6979 24.4197C4.6979 24.436 4.7251 24.9422 8.60578 24.9967C8.60578 24.9967 8.05609 25.4647 6.55934 25.7097C5.13331 25.9491 5.10065 26.2049 5.10065 26.2321C5.10065 26.2321 6.17834 26.7928 9.8304 26.6621C9.8304 26.6621 9.41133 27.7561 9.01944 28.4582C8.62757 29.1658 8.11051 30.3251 7.88737 32.6546C7.6642 34.9895 7.72951 36.7856 7.72951 36.7856C7.72951 36.7856 7.88737 37.9831 8.87792 37.9831C9.86851 37.9831 10.3638 38.1899 10.6632 36.8782C10.9625 35.561 10.9081 34.1405 11.2237 32.9268C11.534 31.7184 11.915 30.3523 12.3558 29.5305C12.7365 28.8208 15.8284 24.3325 17.9164 22.0307C18.4005 21.497 19.2322 21.497 19.7164 22.0307C21.8043 24.3325 24.8962 28.8208 25.2769 29.5305C25.7178 30.3523 26.0988 31.7184 26.409 32.9268C26.7247 34.1405 26.6703 35.561 26.9696 36.8782C27.269 38.1899 27.7643 37.9831 28.7548 37.9831C29.7454 37.9831 29.9032 36.7856 29.9032 36.7856C29.9032 36.7856 29.9686 34.9895 29.7454 32.6546C29.5223 30.3251 29.0052 29.1658 28.6133 28.4582C28.2215 27.7561 27.8024 26.6621 27.8024 26.6621C31.4544 26.7928 32.5321 26.2321 32.5321 26.2321C32.5321 26.2049 32.4995 25.9491 31.0735 25.7097C29.5767 25.4647 29.027 24.9967 29.027 24.9967C32.9077 24.9422 32.9349 24.436 32.9349 24.4197C32.4668 24.1476 31.1007 23.8591 31.1007 23.8591C31.1007 23.8591 31.2585 23.5761 32.494 23.1298ZM28.401 37.7055C27.5466 37.7055 27.3071 37.9994 27.1329 35.7624C26.9587 33.52 26.2457 30.9674 24.9449 28.3603C23.9946 26.4637 21.1836 23.1902 19.722 21.5469C19.2373 21.002 18.3954 21.002 17.9107 21.5469C16.4492 23.1902 13.6381 26.4637 12.6878 28.3603C11.387 30.9674 10.674 33.52 10.4999 35.7624C10.3257 37.9994 10.0862 37.7055 9.23171 37.7055C9.23171 37.7055 9.53105 32.045 10.1896 30.1673C10.8482 28.2895 11.0224 28.2895 12.2579 26.5914C13.4879 24.8878 17.7768 19.1185 17.7768 19.1185L18.8164 20.3758L19.856 19.1185C19.856 19.1185 24.1448 24.8878 25.3749 26.5914C26.6104 28.2895 26.7846 28.2895 27.4431 30.1673C28.1017 32.045 28.401 37.7055 28.401 37.7055Z" fill="#2196F3"/>
<path d="M18.6145 21.7588C18.6145 21.7588 15.904 25.1115 14.6358 26.7607C13.3677 28.4153 12.3064 30.3747 12.3064 30.3747C12.3064 30.3747 11.9145 30.9244 12.0832 31.0985C12.2519 31.2727 12.8234 30.9679 12.8234 30.9679C12.8234 30.9679 12.6275 31.7517 12.7418 31.8333C12.8506 31.9204 13.335 32.1925 13.335 32.1925C13.335 32.1925 13.5745 32.3885 14.2821 31.7299C14.9951 31.0713 16.3013 30.01 16.7912 28.9541C17.2756 27.8928 18.1247 24.453 18.1247 24.453C18.1247 24.453 18.6635 22.401 18.6145 21.7588ZM16.4973 25.4925L16.2524 25.2966L17.0633 23.9903L17.2647 24.1645L16.4973 25.4925ZM17.3627 25.966L17.0905 25.8191L17.711 24.3332L17.9396 24.4149L17.3627 25.966Z" fill="#2196F3"/>
<path d="M19.4988 24.453C19.4988 24.453 20.3479 27.8928 20.8323 28.9541C21.3222 30.01 22.6284 31.0713 23.3414 31.7299C24.049 32.3885 24.2885 32.1925 24.2885 32.1925C24.2885 32.1925 24.7729 31.9204 24.8817 31.8333C24.996 31.7517 24.8001 30.9679 24.8001 30.9679C24.8001 30.9679 25.3716 31.2727 25.5403 31.0985C25.709 30.9244 25.3171 30.3747 25.3171 30.3747C25.3171 30.3747 24.2558 28.4153 22.9877 26.7607C21.7195 25.1115 19.009 21.7588 19.009 21.7588C18.96 22.401 19.4988 24.453 19.4988 24.453ZM20.3588 24.1645L20.5602 23.9903L21.3711 25.2966L21.1262 25.4925L20.3588 24.1645ZM19.6839 24.4149L19.9125 24.3332L20.533 25.8191L20.2608 25.966L19.6839 24.4149Z" fill="#2196F3"/>
<path d="M18.3941 24.4219L18.6611 24.4675L18.3941 26.2588L18.0684 26.1871L18.3941 24.4219Z" fill="#2196F3"/>
<path d="M19.0332 24.4219H19.2742L19.4566 26.2067L19.0788 26.2588L19.0332 24.4219Z" fill="#2196F3"/>
</svg>
