<svg xmlns="http://www.w3.org/2000/svg" version="1.1" xmlns:xlink="http://www.w3.org/1999/xlink" width="512" height="512" x="0" y="0" viewBox="0 0 50 50" style="enable-background:new 0 0 512 512" xml:space="preserve" class=""><g><path fill="#7e9dff" d="M25 14.583a2.083 2.083 0 0 0-2.083 2.084V25a2.083 2.083 0 0 0 4.166 0v-8.333A2.083 2.083 0 0 0 25 14.583zm0 16.667a2.083 2.083 0 1 0 0 4.165 2.083 2.083 0 0 0 0-4.165zm20.23-15.5L34.25 4.77c-.4-.38-.928-.596-1.48-.603H17.23a2.187 2.187 0 0 0-1.48.604L4.77 15.75c-.38.4-.596.927-.603 1.48v15.54c.007.552.223 1.08.604 1.48L15.75 45.23c.4.38.928.596 1.48.603h15.54a2.188 2.188 0 0 0 1.48-.604L45.23 34.25c.38-.4.596-.928.603-1.48V17.23a2.187 2.187 0 0 0-.604-1.48zm-3.563 16.146-9.771 9.77H18.104l-9.77-9.77V18.104l9.77-9.77h13.792l9.77 9.77z" opacity="1" data-original="#7e9dff" class=""></path></g></svg>