<svg xmlns="http://www.w3.org/2000/svg" version="1.1" xmlns:xlink="http://www.w3.org/1999/xlink" width="512" height="512" x="0" y="0" viewBox="0 0 50 50" style="enable-background:new 0 0 512 512" xml:space="preserve" class=""><g><path fill="#7e9dff" d="M25 33.333a2.084 2.084 0 1 0 0 4.167 2.084 2.084 0 0 0 0-4.167zm22.23 3.063L30.457 7.229a6.25 6.25 0 0 0-10.916 0L2.875 36.396a6.25 6.25 0 0 0 5.333 9.437h33.584a6.25 6.25 0 0 0 5.437-9.437zm-3.605 4.167a2.083 2.083 0 0 1-1.833 1.062H8.208a2.083 2.083 0 0 1-1.833-1.063 2.083 2.083 0 0 1 0-2.083L23.042 9.312a2.084 2.084 0 0 1 3.708 0L43.52 38.48a2.083 2.083 0 0 1 .105 2.125zM25 16.666a2.083 2.083 0 0 0-2.083 2.083v8.333a2.083 2.083 0 1 0 4.166 0V18.75A2.083 2.083 0 0 0 25 16.667z" opacity="1" data-original="#7e9dff" class=""></path></g></svg>