<svg width="38" height="39" viewBox="0 0 38 39" fill="none" xmlns="http://www.w3.org/2000/svg">
<path opacity="0.8" d="M0.313247 14.6982C0.313247 14.6982 -0.0333205 18.0484 0.948621 19.3191C1.93056 20.5899 3.6634 22.3227 4.18325 22.7271C4.7031 23.1314 9.43953 26.6548 9.43953 26.6548C9.43953 26.6548 9.72834 27.0592 10.1327 26.7126C10.537 26.366 11.4922 26.3002 11.9099 26.8529C12.3276 27.4057 12.5009 28.5032 12.2121 28.8498C11.9233 29.1963 11.6922 28.9653 11.6922 28.9653C11.6922 28.9653 11.4612 28.8498 11.3457 28.9653C11.2301 29.0808 11.1724 29.5429 11.5767 29.6584C11.981 29.7739 12.3854 29.7162 12.6164 29.5429C12.8474 29.3696 13.5983 28.5609 13.5983 28.5609C13.5983 28.5609 13.7139 28.3877 13.8871 28.5609C14.0604 28.7342 14.8691 29.6584 14.8691 29.6584L15.9088 30.6404L18.6236 32.9508L21.4539 34.9147L23.0712 35.8966L23.36 36.0699C23.36 36.0699 23.591 36.1277 23.591 36.532C23.591 36.9363 23.5333 37.1674 23.5333 37.1674C23.5333 37.1674 23.5333 37.6872 23.9376 37.5139C24.3419 37.3407 25.2661 36.6475 25.6127 36.2432C25.9593 35.8389 26.6524 34.9147 26.8257 34.3371C26.999 33.7595 26.8257 33.4707 26.4213 33.5284C26.017 33.5862 25.6704 33.7017 25.6704 33.7017C25.6704 33.7017 25.4972 33.7595 25.2661 33.5862C25.0351 33.4129 22.6669 31.2757 22.6669 31.2757L20.8763 29.7739L19.49 28.792L17.064 27.2324L16.3131 26.7703L15.9088 26.5971L15.6777 26.5393C15.6777 26.5393 15.4467 26.4815 15.62 26.2505C15.7933 26.0195 16.2554 25.5574 16.2554 25.5574C16.2554 25.5574 16.6019 24.9797 16.5442 24.6332C16.4864 24.2866 16.1976 23.8823 16.1976 23.8823C16.1976 23.8823 15.7933 23.5935 15.62 23.7668C15.4467 23.94 15.62 24.4021 15.6777 24.4599C15.7355 24.5177 15.7355 24.7487 15.5622 24.8642C15.3889 24.9797 14.5225 25.4996 14.5225 25.4996C14.5225 25.4996 14.3492 25.5574 14.2337 25.4418C14.1182 25.3263 12.0388 23.5357 12.0388 23.5357L9.55505 21.8606L7.30236 20.4166L5.16519 18.9148L2.9125 16.9509L1.17967 15.3914L0.313247 14.6982Z" fill="#FFC107"/>
<path d="M37.5774 14.7559C37.5774 14.7559 37.924 18.106 36.942 19.3768C35.9601 20.6475 34.2272 22.3803 33.7074 22.7847C33.1875 23.189 28.4511 26.7124 28.4511 26.7124C28.4511 26.7124 28.1623 27.1168 27.758 26.7702C27.3536 26.4236 26.3984 26.3578 25.9807 26.9106C25.563 27.4633 25.3898 28.5608 25.6786 28.9074C25.9674 29.2539 26.1984 29.0229 26.1984 29.0229C26.1984 29.0229 26.4295 28.9074 26.545 29.0229C26.6605 29.1384 26.7183 29.6005 26.3139 29.716C25.9096 29.8316 25.5053 29.7738 25.2742 29.6005C25.0432 29.4272 24.2923 28.6186 24.2923 28.6186C24.2923 28.6186 24.1768 28.4453 24.0035 28.6186C23.8302 28.7919 23.0215 29.716 23.0215 29.716L21.9818 30.698L19.2671 33.0084L16.4368 34.9723L14.8194 35.9543L14.5306 36.1275C14.5306 36.1275 14.2996 36.1853 14.2996 36.5896C14.2996 36.994 14.3573 37.225 14.3573 37.225C14.3573 37.225 14.3573 37.7449 13.953 37.5716C13.5487 37.3983 12.6245 36.7051 12.2779 36.3008C11.9314 35.8965 11.2382 34.9723 11.065 34.3947C10.8917 33.8171 11.065 33.5283 11.4693 33.586C11.8736 33.6438 12.2202 33.7593 12.2202 33.7593C12.2202 33.7593 12.3935 33.8171 12.6245 33.6438C12.8556 33.4705 15.2238 31.3333 15.2238 31.3333L17.0144 29.8316L18.4006 28.8496L20.8266 27.2901L21.5775 26.828L21.9818 26.6547L22.2129 26.5969C22.2129 26.5969 22.4439 26.5392 22.2706 26.3081C22.0974 26.0771 21.6353 25.615 21.6353 25.615C21.6353 25.615 21.2887 25.0374 21.3465 24.6908C21.4042 24.3442 21.693 23.9399 21.693 23.9399C21.693 23.9399 22.0974 23.6511 22.2706 23.8244C22.4439 23.9977 22.2706 24.4598 22.2129 24.5175C22.1551 24.5753 22.1551 24.8063 22.3284 24.9218C22.5017 25.0374 23.3681 25.5572 23.3681 25.5572C23.3681 25.5572 23.5414 25.615 23.6569 25.4995C23.7724 25.3839 25.8518 23.5933 25.8518 23.5933L28.3356 21.9183L30.5883 20.4742L32.7254 18.9724L34.9781 17.0085L36.711 15.449L37.5774 14.7559Z" fill="#FFC107"/>
<path d="M16.5737 9.23962L18.9405 1.96289L21.2994 9.23962H28.9468L22.7602 13.7004L25.1224 20.9652L18.9405 16.5187L12.7927 20.9652L15.1297 13.745L8.94922 9.23962H16.5737Z" fill="#FFC107"/>
</svg>
